<svg xmlns="http://www.w3.org/2000/svg" viewBox="0 0 512 512" role="img" aria-labelledby="logoTitle logoDesc">
  <title id="logoTitle">Chandana Sai Global Ventures Private Limited logo</title>
  <desc id="logoDesc">A stylized crest above a globe with a plane, cargo ship, and gold trade arcs.</desc>
  <defs>
    <linearGradient id="gold" x1="0%" y1="0%" x2="100%" y2="100%">
      <stop offset="0%" stop-color="#f9de7a"/>
      <stop offset="45%" stop-color="#f0be43"/>
      <stop offset="100%" stop-color="#b67d18"/>
    </linearGradient>
    <linearGradient id="ocean" x1="20%" y1="10%" x2="80%" y2="90%">
      <stop offset="0%" stop-color="#1b68d1"/>
      <stop offset="100%" stop-color="#05336f"/>
    </linearGradient>
    <radialGradient id="land" cx="45%" cy="35%" r="70%">
      <stop offset="0%" stop-color="#d7f48d"/>
      <stop offset="100%" stop-color="#65b329"/>
    </radialGradient>
    <linearGradient id="plane" x1="0%" y1="0%" x2="100%" y2="100%">
      <stop offset="0%" stop-color="#ffffff"/>
      <stop offset="100%" stop-color="#9ab7d8"/>
    </linearGradient>
  </defs>

  <rect width="512" height="512" rx="36" fill="#0d153b"/>

  <g fill="none" stroke="url(#gold)" stroke-width="5.5" stroke-linecap="round" opacity="0.95">
    <path d="M86 144c53-39 125-61 170-61"/>
    <path d="M426 144c-53-39-125-61-170-61"/>
    <path d="M74 205c-19 36-26 74-22 129"/>
    <path d="M438 205c19 36 26 74 22 129"/>
  </g>

  <g transform="translate(256 83)">
    <path d="M-41-12c12-1 25-2 41-2s29 1 41 2c-1 15-4 28-9 42-12 3-21 5-32 5s-20-2-32-5c-5-14-8-27-9-42z" fill="none" stroke="url(#gold)" stroke-width="6"/>
    <text x="0" y="18" text-anchor="middle" font-size="38" font-family="Georgia, serif" fill="#f6d066">CS</text>
    <path d="M-52-22c8 2 14-8 14-15 6 8 13 5 14-6 7 11 16 10 23 0 3 10 10 12 15 4 1 9 6 15 14 12" fill="none" stroke="url(#gold)" stroke-width="7" stroke-linecap="round" stroke-linejoin="round"/>
    <circle cx="-36" cy="-41" r="5" fill="#f6d066"/>
    <circle cx="-2" cy="-53" r="6" fill="#f6d066"/>
    <circle cx="35" cy="-41" r="5" fill="#f6d066"/>
  </g>

  <path d="M76 178c84-33 278-34 360 0" fill="none" stroke="url(#gold)" stroke-width="4"/>

  <text x="256" y="159" text-anchor="middle" font-size="32" font-weight="700" font-family="Georgia, serif" fill="#f6d066">
    Chandana Sai Global Ventures
  </text>

  <g transform="translate(256 286)">
    <circle r="114" fill="url(#ocean)" stroke="url(#gold)" stroke-width="8"/>
    <path d="M-62-62c17-13 38-24 69-28 18-2 29-24 49-22 10 1 12 12 24 17 10 4 25 2 32 10 6 8-1 23-11 29-8 4-19 1-28 5-14 7-16 26-26 40-11 15-30 24-49 22-18-1-37-11-55-3-14 6-33 2-44-10-13-14-15-39-6-57 6-13 20-17 24-31 3-10-2-22 1-32 3-13 11-21 20-27z" fill="url(#land)"/>
    <path d="M-22 78c18-12 24-29 46-44 20-13 33-35 57-35 7 0 17 6 17 14 0 10-11 16-20 19-23 7-34 25-50 42-11 12-24 21-40 23-10 1-19-7-10-19z" fill="url(#land)"/>
    <path d="M-104 6c74-11 136-10 214 7" fill="none" stroke="#f2ca4d" stroke-width="6" stroke-linecap="round"/>
    <path d="M-72-47c69 19 125 53 178 105" fill="none" stroke="#f2ca4d" stroke-width="5" stroke-linecap="round" opacity="0.95"/>
    <path d="M-120 34c75 18 145 23 233 22" fill="none" stroke="#f2ca4d" stroke-width="5" stroke-linecap="round" opacity="0.9"/>
  </g>

  <g transform="translate(344 250) rotate(-15)">
    <path d="M-12 2l78-10c11-1 18 9 12 18l-5 7 8 10-18 1-11 17-16-2-13-16-32-1 14-8-8-9 20-7z" fill="url(#plane)" stroke="#7ea2ca" stroke-width="2"/>
    <rect x="22" y="12" width="18" height="5" rx="2.5" fill="#7ea2ca"/>
    <circle cx="53" cy="21" r="3.2" fill="#3a4f63"/>
    <circle cx="67" cy="19" r="2.8" fill="#3a4f63"/>
  </g>

  <g transform="translate(172 330)">
    <path d="M-48 28c12-3 18-15 23-27h83c7 0 13 5 15 12l10 35c2 8-4 16-13 16H-58c-9 0-15-8-13-17l4-19c2-9 10-15 19-15z" fill="#d61f26" stroke="#992126" stroke-width="2.5"/>
    <path d="M-27 -8h18v22h-18zm18 0h18v22H-9zm18 0h18v22H9zm18 0h18v22H27zm18 0h18v22H45z" fill="#ffd94b"/>
    <path d="M-27 14h18v12h-18zm18 14h18v12H-9zm18-14h18v12H9zm18 14h18v12H27zm18-14h18v12H45z" fill="#1273de"/>
    <path d="M-48 28h108" stroke="#ffe7a0" stroke-width="3"/>
    <path d="M-63 63c28 11 84 11 119 0" fill="none" stroke="#78ccff" stroke-width="8" stroke-linecap="round" opacity="0.85"/>
    <rect x="-56" y="-16" width="11" height="17" fill="#f4f7fb"/>
    <path d="M-50 -35c12 4 20 15 22 26h-43c3-12 9-21 21-26z" fill="#f4f7fb"/>
  </g>

  <text x="256" y="427" text-anchor="middle" font-size="30" font-weight="700" font-family="Georgia, serif" fill="#f6d066">
    Private Limited
  </text>
  <text x="256" y="463" text-anchor="middle" font-size="24" font-weight="700" font-family="Georgia, serif" fill="#f6d066">
    Global Trade, Indian Trust
  </text>
</svg>
